<svg width="18" height="18" viewBox="0 0 18 18" fill="none" xmlns="http://www.w3.org/2000/svg">
<path d="M14.9368 9.68787C14.6458 9.32035 14.729 9.15685 14.9368 8.82834C14.9405 8.82459 17.3428 5.50497 17.5904 4.37918L17.5919 4.37843C17.7149 3.96817 17.5919 3.66666 16.9971 3.66666H15.029C14.528 3.66666 14.297 3.92542 14.1732 4.21493C14.1732 4.21493 13.1712 6.61351 11.7537 8.16831C11.2961 8.61758 11.0846 8.76158 10.8349 8.76158C10.7119 8.76158 10.5206 8.61758 10.5206 8.20731V4.37843C10.5206 3.88641 10.3804 3.66666 9.9656 3.66666H6.87099C6.55673 3.66666 6.36997 3.89616 6.36997 4.10992C6.36997 4.57644 7.07875 4.68369 7.15225 5.99624V8.84409C7.15225 9.46811 7.03899 9.58286 6.78774 9.58286C6.11871 9.58286 4.49491 7.17453 3.53262 4.41818C3.33837 3.88341 3.14861 3.66741 2.64384 3.66741H0.675023C0.113254 3.66741 0 3.92617 0 4.21568C0 4.72719 0.669023 7.27053 3.11111 10.6306C4.73866 12.9242 7.03074 14.167 9.11582 14.167C10.3691 14.167 10.5221 13.891 10.5221 13.4162C10.5221 11.2247 10.4089 11.0177 11.0366 11.0177C11.3276 11.0177 11.8287 11.1617 12.9987 12.268C14.336 13.5798 14.5558 14.167 15.3043 14.167H17.2723C17.8334 14.167 18.1176 13.891 17.9541 13.3465C17.5799 12.2012 15.0508 9.84537 14.9368 9.68787Z" fill="#171219"/>
</svg>
