<svg width="24" height="24" viewBox="0 0 24 24" fill="none" xmlns="http://www.w3.org/2000/svg">
<path d="M19.0717 4.92888C18.6812 4.53836 18.0481 4.53836 17.6575 4.92888L12.0007 10.5857L6.34383 4.92888C5.9533 4.53836 5.32014 4.53836 4.92961 4.92888C4.53909 5.3194 4.53909 5.95257 4.92961 6.34309L10.5865 11.9999L4.92961 17.6568C4.53909 18.0473 4.53909 18.6805 4.92961 19.071C5.32014 19.4615 5.9533 19.4615 6.34383 19.071L12.0007 13.4142L17.6575 19.071C18.0481 19.4615 18.6812 19.4615 19.0717 19.071C19.4623 18.6805 19.4623 18.0473 19.0717 17.6568L13.4149 11.9999L19.0717 6.34309C19.4623 5.95257 19.4623 5.3194 19.0717 4.92888Z" fill="#171219"/>
</svg>
