<svg width="18" height="18" viewBox="0 0 18 18" fill="none" xmlns="http://www.w3.org/2000/svg">
<path d="M12.6987 1.00333L10.7799 1C8.62416 1 7.23102 2.54552 7.23102 4.93762V6.75313H5.30172C5.135 6.75313 5 6.89927 5 7.07954V9.71001C5 9.89028 5.13516 10.0363 5.30172 10.0363H7.23102V16.6738C7.23102 16.854 7.36603 17 7.53274 17H10.0499C10.2166 17 10.3517 16.8539 10.3517 16.6738V10.0363H12.6075C12.7742 10.0363 12.9092 9.89028 12.9092 9.71001L12.9101 7.07954C12.9101 6.99299 12.8782 6.91009 12.8217 6.84884C12.7652 6.78758 12.6883 6.75313 12.6082 6.75313H10.3517V5.2141C10.3517 4.47438 10.5147 4.09886 11.4058 4.09886L12.6984 4.09836C12.865 4.09836 13 3.95222 13 3.77211V1.32958C13 1.14964 12.8652 1.00366 12.6987 1.00333Z" fill="#171219"/>
</svg>
