<svg width="24" height="24" viewBox="0 0 24 24" fill="none" xmlns="http://www.w3.org/2000/svg">
<path fill-rule="evenodd" clip-rule="evenodd" d="M2 12C2 12.5523 2.44772 13 3 13L18.784 13L12.7502 19.8384C12.3848 20.2525 12.4243 20.8844 12.8384 21.2498C13.2525 21.6152 13.8844 21.5757 14.2498 21.1616L21.7467 12.6651C21.749 12.6626 21.7512 12.6601 21.7534 12.6575L22.3336 12L21.7539 11.343C21.7514 11.3401 21.7488 11.3372 21.7463 11.3343L14.2498 2.83837C13.8844 2.42424 13.2525 2.38475 12.8384 2.75015C12.4243 3.11555 12.3848 3.74749 12.7502 4.16161L18.784 11L3 11C2.44772 11 2 11.4477 2 12Z" fill="#171219"/>
</svg>
