<svg width="18" height="18" viewBox="0 0 18 18" fill="none" xmlns="http://www.w3.org/2000/svg">
<path d="M17 3.65739C16.405 3.93846 15.771 4.12477 15.11 4.21523C15.79 3.778 16.309 3.09092 16.553 2.26277C15.919 2.66985 15.219 2.95739 14.473 3.11785C13.871 2.42754 13.013 2 12.077 2C10.261 2 8.799 3.58738 8.799 5.53338C8.799 5.81338 8.821 6.08262 8.875 6.33892C6.148 6.19569 3.735 4.78815 2.114 2.644C1.831 3.17277 1.665 3.778 1.665 4.42954C1.665 5.65292 2.25 6.73738 3.122 7.36523C2.595 7.35446 2.078 7.18969 1.64 6.93015C1.64 6.94092 1.64 6.95492 1.64 6.96892C1.64 8.68554 2.777 10.1114 4.268 10.4398C4.001 10.5185 3.71 10.5562 3.408 10.5562C3.198 10.5562 2.986 10.5432 2.787 10.4958C3.212 11.8948 4.418 12.9232 5.852 12.9566C4.736 13.8968 3.319 14.4632 1.785 14.4632C1.516 14.4632 1.258 14.4503 0.999999 14.4148C2.453 15.4238 4.175 16 6.032 16C12.068 16 15.368 10.6154 15.368 5.948C15.368 5.79185 15.363 5.64108 15.356 5.49139C16.007 4.99385 16.554 4.37246 17 3.65739Z" fill="#171219"/>
</svg>
