<svg width="18" height="18" viewBox="0 0 18 18" fill="none" xmlns="http://www.w3.org/2000/svg">
<path fill-rule="evenodd" clip-rule="evenodd" d="M12.6961 3C14.7325 3 15.7988 3.29845 16.3764 4.03011C16.9566 4.76502 17 5.89068 17 7.52402V10.476C17 12.3477 16.723 13.4288 16.0738 14.0909C15.4407 14.7366 14.4621 15 12.6961 15L5.30379 15C1.6656 15 1 13.4766 1 10.476L1 7.52402C1 5.97522 1 4.85617 1.56098 4.09667C2.13636 3.31771 3.22075 3 5.30379 3L12.6961 3ZM7.91536 11.2765L11.2722 9.40689C11.4427 9.31195 11.5495 9.12378 11.5493 8.91862C11.549 8.71362 11.4418 8.52572 11.271 8.43123L7.91417 6.57363C7.75422 6.48508 7.56248 6.4919 7.40831 6.59168C7.25419 6.69145 7.16016 6.86967 7.16016 7.06174V10.789C7.16016 10.9814 7.25445 11.1598 7.40888 11.2595C7.49089 11.3124 7.58349 11.3391 7.67629 11.3391C7.75825 11.3391 7.84031 11.3183 7.91536 11.2765Z" fill="#171219"/>
</svg>
